<svg width="560" height="80" viewBox="0 0 560 80" fill="none" xmlns="http://www.w3.org/2000/svg">
<path d="M13.9023 24.043H23.5V36.9453C22.1523 37.3906 20.7578 37.7363 19.3164 37.9824C17.875 38.2285 16.2578 38.3516 14.4648 38.3516C11.8516 38.3516 9.63672 37.8359 7.82031 36.8047C6.01562 35.7617 4.64453 34.2559 3.70703 32.2871C2.76953 30.3066 2.30078 27.9219 2.30078 25.1328C2.30078 22.4492 2.82227 20.123 3.86523 18.1543C4.9082 16.1738 6.42578 14.6445 8.41797 13.5664C10.4102 12.4766 12.8242 11.9316 15.6602 11.9316C17.0547 11.9316 18.4023 12.0723 19.7031 12.3535C21.0156 12.623 22.2168 12.998 23.3066 13.4785L21.8301 16.959C20.9629 16.5488 19.9902 16.2031 18.9121 15.9219C17.834 15.6406 16.7148 15.5 15.5547 15.5C13.7148 15.5 12.127 15.8984 10.791 16.6953C9.4668 17.4922 8.44727 18.6172 7.73242 20.0703C7.01758 21.5117 6.66016 23.2168 6.66016 25.1855C6.66016 27.0957 6.94727 28.7715 7.52148 30.2129C8.0957 31.6543 8.99219 32.7793 10.2109 33.5879C11.4414 34.3848 13.0293 34.7832 14.9746 34.7832C15.9473 34.7832 16.7734 34.7305 17.4531 34.625C18.1328 34.5195 18.7598 34.4023 19.334 34.2734V27.6465H13.9023V24.043ZM46.457 28.2266C46.457 29.8438 46.2461 31.2793 45.8242 32.5332C45.4023 33.7871 44.7871 34.8477 43.9785 35.7148C43.1699 36.5703 42.1973 37.2266 41.0605 37.6836C39.9238 38.1289 38.6406 38.3516 37.2109 38.3516C35.875 38.3516 34.6504 38.1289 33.5371 37.6836C32.4238 37.2266 31.457 36.5703 30.6367 35.7148C29.8281 34.8477 29.2012 33.7871 28.7559 32.5332C28.3105 31.2793 28.0879 29.8438 28.0879 28.2266C28.0879 26.082 28.457 24.2656 29.1953 22.7773C29.9453 21.2773 31.0117 20.1348 32.3945 19.3496C33.7773 18.5645 35.4238 18.1719 37.334 18.1719C39.127 18.1719 40.709 18.5645 42.0801 19.3496C43.4512 20.1348 44.5234 21.2773 45.2969 22.7773C46.0703 24.2773 46.457 26.0938 46.457 28.2266ZM32.3418 28.2266C32.3418 29.6445 32.5117 30.8574 32.8516 31.8652C33.2031 32.873 33.7422 33.6465 34.4688 34.1855C35.1953 34.7129 36.1328 34.9766 37.2812 34.9766C38.4297 34.9766 39.3672 34.7129 40.0938 34.1855C40.8203 33.6465 41.3535 32.873 41.6934 31.8652C42.0332 30.8574 42.2031 29.6445 42.2031 28.2266C42.2031 26.8086 42.0332 25.6074 41.6934 24.623C41.3535 23.627 40.8203 22.8711 40.0938 22.3555C39.3672 21.8281 38.4238 21.5645 37.2637 21.5645C35.5527 21.5645 34.3047 22.1387 33.5195 23.2871C32.7344 24.4355 32.3418 26.082 32.3418 28.2266ZM68.4297 28.2266C68.4297 29.8438 68.2188 31.2793 67.7969 32.5332C67.375 33.7871 66.7598 34.8477 65.9512 35.7148C65.1426 36.5703 64.1699 37.2266 63.0332 37.6836C61.8965 38.1289 60.6133 38.3516 59.1836 38.3516C57.8477 38.3516 56.623 38.1289 55.5098 37.6836C54.3965 37.2266 53.4297 36.5703 52.6094 35.7148C51.8008 34.8477 51.1738 33.7871 50.7285 32.5332C50.2832 31.2793 50.0605 29.8438 50.0605 28.2266C50.0605 26.082 50.4297 24.2656 51.168 22.7773C51.918 21.2773 52.9844 20.1348 54.3672 19.3496C55.75 18.5645 57.3965 18.1719 59.3066 18.1719C61.0996 18.1719 62.6816 18.5645 64.0527 19.3496C65.4238 20.1348 66.4961 21.2773 67.2695 22.7773C68.043 24.2773 68.4297 26.0938 68.4297 28.2266ZM54.3145 28.2266C54.3145 29.6445 54.4844 30.8574 54.8242 31.8652C55.1758 32.873 55.7148 33.6465 56.4414 34.1855C57.168 34.7129 58.1055 34.9766 59.2539 34.9766C60.4023 34.9766 61.3398 34.7129 62.0664 34.1855C62.793 33.6465 63.3262 32.873 63.666 31.8652C64.0059 30.8574 64.1758 29.6445 64.1758 28.2266C64.1758 26.8086 64.0059 25.6074 63.666 24.623C63.3262 23.627 62.793 22.8711 62.0664 22.3555C61.3398 21.8281 60.3965 21.5645 59.2363 21.5645C57.5254 21.5645 56.2773 22.1387 55.4922 23.2871C54.707 24.4355 54.3145 26.082 54.3145 28.2266ZM78.7305 46.6484C76.0938 46.6484 74.0723 46.1738 72.666 45.2246C71.2598 44.2754 70.5566 42.9453 70.5566 41.2344C70.5566 40.0391 70.9316 39.0254 71.6816 38.1934C72.4316 37.373 73.5039 36.8047 74.8984 36.4883C74.3711 36.2539 73.9141 35.8906 73.5273 35.3984C73.1523 34.8945 72.9648 34.3379 72.9648 33.7285C72.9648 33.002 73.1699 32.3809 73.5801 31.8652C73.9902 31.3496 74.6055 30.8516 75.4258 30.3711C74.4062 29.9375 73.5859 29.2344 72.9648 28.2617C72.3555 27.2773 72.0508 26.123 72.0508 24.7988C72.0508 23.3926 72.3496 22.1973 72.9473 21.2129C73.5449 20.2168 74.418 19.4609 75.5664 18.9453C76.7148 18.418 78.1035 18.1543 79.7324 18.1543C80.084 18.1543 80.4648 18.1777 80.875 18.2246C81.2969 18.2598 81.6836 18.3066 82.0352 18.3652C82.3984 18.4121 82.6738 18.4648 82.8613 18.5234H89.5938V20.8262L86.2891 21.4414C86.6055 21.8867 86.8574 22.3965 87.0449 22.9707C87.2324 23.5332 87.3262 24.1484 87.3262 24.8164C87.3262 26.832 86.6289 28.4199 85.2344 29.5801C83.8516 30.7285 81.9414 31.3027 79.5039 31.3027C78.918 31.2793 78.3496 31.2324 77.7988 31.1621C77.377 31.4199 77.0547 31.707 76.832 32.0234C76.6094 32.3281 76.498 32.6738 76.498 33.0605C76.498 33.377 76.6094 33.6348 76.832 33.834C77.0547 34.0215 77.3828 34.1621 77.8164 34.2559C78.2617 34.3496 78.8008 34.3965 79.4336 34.3965H82.791C84.9238 34.3965 86.5527 34.8477 87.6777 35.75C88.8027 36.6523 89.3652 37.9766 89.3652 39.7227C89.3652 41.9375 88.4512 43.6426 86.623 44.8379C84.7949 46.0449 82.1641 46.6484 78.7305 46.6484ZM78.8887 43.748C80.3301 43.748 81.543 43.6074 82.5273 43.3262C83.5117 43.0449 84.2559 42.6406 84.7598 42.1133C85.2637 41.5977 85.5156 40.9824 85.5156 40.2676C85.5156 39.6348 85.3574 39.1484 85.041 38.8086C84.7246 38.4688 84.25 38.2344 83.6172 38.1055C82.9844 37.9766 82.1992 37.9121 81.2617 37.9121H78.2031C77.4414 37.9121 76.7676 38.0293 76.1816 38.2637C75.5957 38.5098 75.1387 38.8613 74.8105 39.3184C74.4941 39.7754 74.3359 40.3262 74.3359 40.9707C74.3359 41.8613 74.7285 42.5469 75.5137 43.0273C76.3105 43.5078 77.4355 43.748 78.8887 43.748ZM79.6973 28.5957C80.9043 28.5957 81.8008 28.2676 82.3867 27.6113C82.9727 26.9434 83.2656 26.0059 83.2656 24.7988C83.2656 23.4863 82.9609 22.502 82.3516 21.8457C81.7539 21.1895 80.8633 20.8613 79.6797 20.8613C78.5195 20.8613 77.6348 21.1953 77.0254 21.8633C76.4277 22.5312 76.1289 23.5215 76.1289 24.834C76.1289 26.0176 76.4277 26.9434 77.0254 27.6113C77.6348 28.2676 78.5254 28.5957 79.6973 28.5957ZM97.293 38H93.1445V10.6484H97.293V38ZM110.951 18.1719C112.686 18.1719 114.174 18.5293 115.416 19.2441C116.658 19.959 117.613 20.9727 118.281 22.2852C118.949 23.5977 119.283 25.168 119.283 26.9961V29.2109H106.293C106.34 31.0977 106.844 32.5508 107.805 33.5703C108.777 34.5898 110.137 35.0996 111.883 35.0996C113.125 35.0996 114.238 34.9824 115.223 34.748C116.219 34.502 117.244 34.1445 118.299 33.6758V37.0332C117.326 37.4902 116.336 37.8242 115.328 38.0352C114.32 38.2461 113.113 38.3516 111.707 38.3516C109.797 38.3516 108.115 37.9824 106.662 37.2441C105.221 36.4941 104.09 35.3809 103.27 33.9043C102.461 32.4277 102.057 30.5938 102.057 28.4023C102.057 26.2227 102.426 24.3711 103.164 22.8477C103.902 21.3242 104.939 20.1641 106.275 19.3672C107.611 18.5703 109.17 18.1719 110.951 18.1719ZM110.951 21.2832C109.65 21.2832 108.596 21.7051 107.787 22.5488C106.99 23.3926 106.521 24.6289 106.381 26.2578H115.24C115.229 25.2852 115.064 24.4238 114.748 23.6738C114.443 22.9238 113.975 22.3379 113.342 21.916C112.721 21.4941 111.924 21.2832 110.951 21.2832ZM154.58 24.9043C154.58 27.7988 154.041 30.2188 152.963 32.1641C151.885 34.0977 150.32 35.5566 148.27 36.541C146.219 37.5137 143.746 38 140.852 38H133.715V12.3008H141.625C144.285 12.3008 146.582 12.7812 148.516 13.7422C150.449 14.6914 151.943 16.1035 152.998 17.9785C154.053 19.8418 154.58 22.1504 154.58 24.9043ZM150.186 25.0273C150.186 22.918 149.852 21.1836 149.184 19.8242C148.527 18.4648 147.555 17.457 146.266 16.8008C144.988 16.1328 143.412 15.7988 141.537 15.7988H137.934V34.4668H140.922C144.027 34.4668 146.348 33.6758 147.883 32.0938C149.418 30.5117 150.186 28.1562 150.186 25.0273ZM167.447 18.1719C169.182 18.1719 170.67 18.5293 171.912 19.2441C173.154 19.959 174.109 20.9727 174.777 22.2852C175.445 23.5977 175.779 25.168 175.779 26.9961V29.2109H162.789C162.836 31.0977 163.34 32.5508 164.301 33.5703C165.273 34.5898 166.633 35.0996 168.379 35.0996C169.621 35.0996 170.734 34.9824 171.719 34.748C172.715 34.502 173.74 34.1445 174.795 33.6758V37.0332C173.822 37.4902 172.832 37.8242 171.824 38.0352C170.816 38.2461 169.609 38.3516 168.203 38.3516C166.293 38.3516 164.611 37.9824 163.158 37.2441C161.717 36.4941 160.586 35.3809 159.766 33.9043C158.957 32.4277 158.553 30.5938 158.553 28.4023C158.553 26.2227 158.922 24.3711 159.66 22.8477C160.398 21.3242 161.436 20.1641 162.771 19.3672C164.107 18.5703 165.666 18.1719 167.447 18.1719ZM167.447 21.2832C166.146 21.2832 165.092 21.7051 164.283 22.5488C163.486 23.3926 163.018 24.6289 162.877 26.2578H171.736C171.725 25.2852 171.561 24.4238 171.244 23.6738C170.939 22.9238 170.471 22.3379 169.838 21.916C169.217 21.4941 168.42 21.2832 167.447 21.2832ZM184.885 38L177.484 18.541H181.861L185.869 29.9668C186.127 30.6934 186.361 31.4785 186.572 32.3223C186.783 33.166 186.93 33.875 187.012 34.4492H187.152C187.234 33.8516 187.393 33.1367 187.627 32.3047C187.861 31.4609 188.102 30.6816 188.348 29.9668L192.355 18.541H196.715L189.314 38H184.885ZM207.42 18.1719C209.154 18.1719 210.643 18.5293 211.885 19.2441C213.127 19.959 214.082 20.9727 214.75 22.2852C215.418 23.5977 215.752 25.168 215.752 26.9961V29.2109H202.762C202.809 31.0977 203.312 32.5508 204.273 33.5703C205.246 34.5898 206.605 35.0996 208.352 35.0996C209.594 35.0996 210.707 34.9824 211.691 34.748C212.688 34.502 213.713 34.1445 214.768 33.6758V37.0332C213.795 37.4902 212.805 37.8242 211.797 38.0352C210.789 38.2461 209.582 38.3516 208.176 38.3516C206.266 38.3516 204.584 37.9824 203.131 37.2441C201.689 36.4941 200.559 35.3809 199.738 33.9043C198.93 32.4277 198.525 30.5938 198.525 28.4023C198.525 26.2227 198.895 24.3711 199.633 22.8477C200.371 21.3242 201.408 20.1641 202.744 19.3672C204.08 18.5703 205.639 18.1719 207.42 18.1719ZM207.42 21.2832C206.119 21.2832 205.064 21.7051 204.256 22.5488C203.459 23.3926 202.99 24.6289 202.85 26.2578H211.709C211.697 25.2852 211.533 24.4238 211.217 23.6738C210.912 22.9238 210.443 22.3379 209.811 21.916C209.189 21.4941 208.393 21.2832 207.42 21.2832ZM224.559 38H220.41V10.6484H224.559V38ZM247.691 28.2266C247.691 29.8438 247.48 31.2793 247.059 32.5332C246.637 33.7871 246.021 34.8477 245.213 35.7148C244.404 36.5703 243.432 37.2266 242.295 37.6836C241.158 38.1289 239.875 38.3516 238.445 38.3516C237.109 38.3516 235.885 38.1289 234.771 37.6836C233.658 37.2266 232.691 36.5703 231.871 35.7148C231.062 34.8477 230.436 33.7871 229.99 32.5332C229.545 31.2793 229.322 29.8438 229.322 28.2266C229.322 26.082 229.691 24.2656 230.43 22.7773C231.18 21.2773 232.246 20.1348 233.629 19.3496C235.012 18.5645 236.658 18.1719 238.568 18.1719C240.361 18.1719 241.943 18.5645 243.314 19.3496C244.686 20.1348 245.758 21.2773 246.531 22.7773C247.305 24.2773 247.691 26.0938 247.691 28.2266ZM233.576 28.2266C233.576 29.6445 233.746 30.8574 234.086 31.8652C234.438 32.873 234.977 33.6465 235.703 34.1855C236.43 34.7129 237.367 34.9766 238.516 34.9766C239.664 34.9766 240.602 34.7129 241.328 34.1855C242.055 33.6465 242.588 32.873 242.928 31.8652C243.268 30.8574 243.438 29.6445 243.438 28.2266C243.438 26.8086 243.268 25.6074 242.928 24.623C242.588 23.627 242.055 22.8711 241.328 22.3555C240.602 21.8281 239.658 21.5645 238.498 21.5645C236.787 21.5645 235.539 22.1387 234.754 23.2871C233.969 24.4355 233.576 26.082 233.576 28.2266ZM262.422 18.1719C264.73 18.1719 266.582 19.0156 267.977 20.7031C269.383 22.3906 270.086 24.8984 270.086 28.2266C270.086 30.4297 269.758 32.2871 269.102 33.7988C268.457 35.2988 267.549 36.4355 266.377 37.209C265.217 37.9707 263.863 38.3516 262.316 38.3516C261.332 38.3516 260.477 38.2227 259.75 37.9648C259.023 37.707 258.402 37.373 257.887 36.9629C257.371 36.541 256.938 36.084 256.586 35.5918H256.34C256.398 36.0605 256.451 36.582 256.498 37.1562C256.557 37.7188 256.586 38.2344 256.586 38.7031V46.6309H252.438V18.541H255.812L256.393 21.2305H256.586C256.949 20.6797 257.389 20.1699 257.904 19.7012C258.432 19.2324 259.064 18.8633 259.803 18.5938C260.553 18.3125 261.426 18.1719 262.422 18.1719ZM261.314 21.5469C260.178 21.5469 259.264 21.7754 258.572 22.2324C257.893 22.6777 257.395 23.3516 257.078 24.2539C256.773 25.1562 256.609 26.2871 256.586 27.6465V28.2266C256.586 29.668 256.732 30.8926 257.025 31.9004C257.33 32.8965 257.828 33.6582 258.52 34.1855C259.223 34.7012 260.172 34.959 261.367 34.959C262.375 34.959 263.207 34.6836 263.863 34.1328C264.531 33.582 265.029 32.7969 265.357 31.7773C265.686 30.7578 265.85 29.5566 265.85 28.1738C265.85 26.0762 265.475 24.4473 264.725 23.2871C263.986 22.127 262.85 21.5469 261.314 21.5469ZM282.619 18.1719C284.354 18.1719 285.842 18.5293 287.084 19.2441C288.326 19.959 289.281 20.9727 289.949 22.2852C290.617 23.5977 290.951 25.168 290.951 26.9961V29.2109H277.961C278.008 31.0977 278.512 32.5508 279.473 33.5703C280.445 34.5898 281.805 35.0996 283.551 35.0996C284.793 35.0996 285.906 34.9824 286.891 34.748C287.887 34.502 288.912 34.1445 289.967 33.6758V37.0332C288.994 37.4902 288.004 37.8242 286.996 38.0352C285.988 38.2461 284.781 38.3516 283.375 38.3516C281.465 38.3516 279.783 37.9824 278.33 37.2441C276.889 36.4941 275.758 35.3809 274.938 33.9043C274.129 32.4277 273.725 30.5938 273.725 28.4023C273.725 26.2227 274.094 24.3711 274.832 22.8477C275.57 21.3242 276.607 20.1641 277.943 19.3672C279.279 18.5703 280.838 18.1719 282.619 18.1719ZM282.619 21.2832C281.318 21.2832 280.264 21.7051 279.455 22.5488C278.658 23.3926 278.189 24.6289 278.049 26.2578H286.908C286.896 25.2852 286.732 24.4238 286.416 23.6738C286.111 22.9238 285.643 22.3379 285.01 21.916C284.389 21.4941 283.592 21.2832 282.619 21.2832ZM305.471 18.1719C305.799 18.1719 306.156 18.1895 306.543 18.2246C306.93 18.2598 307.264 18.3066 307.545 18.3652L307.158 22.2324C306.912 22.1621 306.607 22.1094 306.244 22.0742C305.893 22.0391 305.576 22.0215 305.295 22.0215C304.557 22.0215 303.854 22.1445 303.186 22.3906C302.518 22.625 301.926 22.9883 301.41 23.4805C300.895 23.9609 300.49 24.5645 300.197 25.291C299.904 26.0176 299.758 26.8613 299.758 27.8223V38H295.609V18.541H298.844L299.406 21.9688H299.6C299.986 21.2773 300.467 20.6445 301.041 20.0703C301.615 19.4961 302.271 19.0391 303.01 18.6992C303.76 18.3477 304.58 18.1719 305.471 18.1719ZM335.758 31.0039C335.758 32.5273 335.383 33.8398 334.633 34.9414C333.895 36.043 332.828 36.8867 331.434 37.4727C330.051 38.0586 328.398 38.3516 326.477 38.3516C325.539 38.3516 324.643 38.2988 323.787 38.1934C322.932 38.0879 322.123 37.9355 321.361 37.7363C320.611 37.5254 319.926 37.2734 319.305 36.9805V33.0078C320.348 33.4648 321.514 33.8809 322.803 34.2559C324.092 34.6191 325.404 34.8008 326.74 34.8008C327.83 34.8008 328.732 34.6602 329.447 34.3789C330.174 34.0859 330.713 33.6758 331.064 33.1484C331.416 32.6094 331.592 31.9824 331.592 31.2676C331.592 30.5059 331.387 29.8613 330.977 29.334C330.566 28.8066 329.945 28.3262 329.113 27.8926C328.293 27.4473 327.262 26.9727 326.02 26.4688C325.176 26.1289 324.367 25.7422 323.594 25.3086C322.832 24.875 322.152 24.3652 321.555 23.7793C320.957 23.1934 320.482 22.502 320.131 21.7051C319.791 20.8965 319.621 19.9473 319.621 18.8574C319.621 17.4043 319.967 16.1621 320.658 15.1309C321.361 14.0996 322.346 13.3086 323.611 12.7578C324.889 12.207 326.377 11.9316 328.076 11.9316C329.424 11.9316 330.689 12.0723 331.873 12.3535C333.068 12.6348 334.24 13.0332 335.389 13.5488L334.053 16.9414C332.998 16.5078 331.973 16.1621 330.977 15.9043C329.992 15.6465 328.984 15.5176 327.953 15.5176C327.062 15.5176 326.307 15.6523 325.686 15.9219C325.064 16.1914 324.59 16.5723 324.262 17.0645C323.945 17.5449 323.787 18.1191 323.787 18.7871C323.787 19.5371 323.969 20.1699 324.332 20.6855C324.707 21.1895 325.281 21.6523 326.055 22.0742C326.84 22.4961 327.848 22.9648 329.078 23.4805C330.496 24.0664 331.697 24.6816 332.682 25.3262C333.678 25.9707 334.439 26.7441 334.967 27.6465C335.494 28.5371 335.758 29.6562 335.758 31.0039ZM347.535 35.0117C348.074 35.0117 348.607 34.9648 349.135 34.8711C349.662 34.7656 350.143 34.6426 350.576 34.502V37.6309C350.119 37.8301 349.527 38 348.801 38.1406C348.074 38.2812 347.318 38.3516 346.533 38.3516C345.432 38.3516 344.441 38.1699 343.562 37.8066C342.684 37.4316 341.986 36.793 341.471 35.8906C340.955 34.9883 340.697 33.7402 340.697 32.1465V21.6875H338.043V19.8418L340.891 18.3828L342.244 14.2168H344.846V18.541H350.418V21.6875H344.846V32.0938C344.846 33.0781 345.092 33.8105 345.584 34.291C346.076 34.7715 346.727 35.0117 347.535 35.0117ZM371.494 18.541V38H368.242L367.68 35.3809H367.451C367.041 36.0488 366.52 36.6055 365.887 37.0508C365.254 37.4844 364.551 37.8066 363.777 38.0176C363.004 38.2402 362.189 38.3516 361.334 38.3516C359.869 38.3516 358.615 38.1055 357.572 37.6133C356.541 37.1094 355.75 36.3359 355.199 35.293C354.648 34.25 354.373 32.9023 354.373 31.25V18.541H358.521V30.4766C358.521 31.9883 358.826 33.1191 359.436 33.8691C360.057 34.6191 361.018 34.9941 362.318 34.9941C363.572 34.9941 364.568 34.7363 365.307 34.2207C366.045 33.7051 366.566 32.9434 366.871 31.9355C367.188 30.9277 367.346 29.6914 367.346 28.2266V18.541H371.494ZM383.957 38.3516C381.637 38.3516 379.773 37.5078 378.367 35.8203C376.973 34.1211 376.275 31.6191 376.275 28.3145C376.275 24.9746 376.984 22.4492 378.402 20.7383C379.832 19.0273 381.713 18.1719 384.045 18.1719C385.029 18.1719 385.891 18.3066 386.629 18.5762C387.367 18.834 388 19.1855 388.527 19.6309C389.066 20.0762 389.523 20.5742 389.898 21.125H390.092C390.033 20.7617 389.963 20.2402 389.881 19.5605C389.811 18.8691 389.775 18.2305 389.775 17.6445V10.6484H393.924V38H390.689L389.951 35.3457H389.775C389.424 35.9082 388.979 36.418 388.439 36.875C387.912 37.3203 387.279 37.6777 386.541 37.9473C385.814 38.2168 384.953 38.3516 383.957 38.3516ZM385.117 34.9941C386.887 34.9941 388.135 34.4844 388.861 33.4648C389.588 32.4453 389.963 30.916 389.986 28.877V28.332C389.986 26.1523 389.635 24.4824 388.932 23.3223C388.229 22.1504 386.945 21.5645 385.082 21.5645C383.594 21.5645 382.457 22.168 381.672 23.375C380.898 24.5703 380.512 26.2402 380.512 28.3848C380.512 30.5293 380.898 32.1699 381.672 33.3066C382.457 34.4316 383.605 34.9941 385.117 34.9941ZM407.6 18.1719C409.334 18.1719 410.822 18.5293 412.064 19.2441C413.307 19.959 414.262 20.9727 414.93 22.2852C415.598 23.5977 415.932 25.168 415.932 26.9961V29.2109H402.941C402.988 31.0977 403.492 32.5508 404.453 33.5703C405.426 34.5898 406.785 35.0996 408.531 35.0996C409.773 35.0996 410.887 34.9824 411.871 34.748C412.867 34.502 413.893 34.1445 414.947 33.6758V37.0332C413.975 37.4902 412.984 37.8242 411.977 38.0352C410.969 38.2461 409.762 38.3516 408.355 38.3516C406.445 38.3516 404.764 37.9824 403.311 37.2441C401.869 36.4941 400.738 35.3809 399.918 33.9043C399.109 32.4277 398.705 30.5938 398.705 28.4023C398.705 26.2227 399.074 24.3711 399.812 22.8477C400.551 21.3242 401.588 20.1641 402.924 19.3672C404.26 18.5703 405.818 18.1719 407.6 18.1719ZM407.6 21.2832C406.299 21.2832 405.244 21.7051 404.436 22.5488C403.639 23.3926 403.17 24.6289 403.029 26.2578H411.889C411.877 25.2852 411.713 24.4238 411.396 23.6738C411.092 22.9238 410.623 22.3379 409.99 21.916C409.369 21.4941 408.572 21.2832 407.6 21.2832ZM430.732 18.1719C432.924 18.1719 434.629 18.7402 435.848 19.877C437.078 21.002 437.693 22.8125 437.693 25.3086V38H433.562V26.082C433.562 24.5703 433.252 23.4395 432.631 22.6895C432.01 21.9277 431.049 21.5469 429.748 21.5469C427.861 21.5469 426.549 22.127 425.811 23.2871C425.084 24.4473 424.721 26.1289 424.721 28.332V38H420.59V18.541H423.807L424.387 21.1777H424.615C425.037 20.498 425.559 19.9414 426.18 19.5078C426.812 19.0625 427.516 18.7285 428.289 18.5059C429.074 18.2832 429.889 18.1719 430.732 18.1719ZM450.719 35.0117C451.258 35.0117 451.791 34.9648 452.318 34.8711C452.846 34.7656 453.326 34.6426 453.76 34.502V37.6309C453.303 37.8301 452.711 38 451.984 38.1406C451.258 38.2812 450.502 38.3516 449.717 38.3516C448.615 38.3516 447.625 38.1699 446.746 37.8066C445.867 37.4316 445.17 36.793 444.654 35.8906C444.139 34.9883 443.881 33.7402 443.881 32.1465V21.6875H441.227V19.8418L444.074 18.3828L445.428 14.2168H448.029V18.541H453.602V21.6875H448.029V32.0938C448.029 33.0781 448.275 33.8105 448.768 34.291C449.26 34.7715 449.91 35.0117 450.719 35.0117ZM478.439 15.5176C477.209 15.5176 476.107 15.7402 475.135 16.1855C474.174 16.6309 473.359 17.2754 472.691 18.1191C472.023 18.9512 471.514 19.9648 471.162 21.1602C470.811 22.3438 470.635 23.6797 470.635 25.168C470.635 27.1602 470.916 28.877 471.479 30.3184C472.041 31.748 472.896 32.8496 474.045 33.623C475.193 34.3848 476.646 34.7656 478.404 34.7656C479.494 34.7656 480.555 34.6602 481.586 34.4492C482.617 34.2383 483.684 33.9512 484.785 33.5879V37.1738C483.742 37.584 482.688 37.8828 481.621 38.0703C480.555 38.2578 479.324 38.3516 477.93 38.3516C475.305 38.3516 473.125 37.8066 471.391 36.7168C469.668 35.627 468.379 34.0918 467.523 32.1113C466.68 30.1309 466.258 27.8105 466.258 25.1504C466.258 23.2051 466.527 21.4238 467.066 19.8066C467.605 18.1895 468.391 16.7949 469.422 15.623C470.453 14.4395 471.725 13.5312 473.236 12.8984C474.76 12.2539 476.5 11.9316 478.457 11.9316C479.746 11.9316 481.012 12.0781 482.254 12.3711C483.508 12.6523 484.668 13.0566 485.734 13.584L484.258 17.0645C483.367 16.6426 482.436 16.2793 481.463 15.9746C480.49 15.6699 479.482 15.5176 478.439 15.5176ZM494.031 38H489.883V10.6484H494.031V38ZM516.9 18.541V38H513.648L513.086 35.3809H512.857C512.447 36.0488 511.926 36.6055 511.293 37.0508C510.66 37.4844 509.957 37.8066 509.184 38.0176C508.41 38.2402 507.596 38.3516 506.74 38.3516C505.275 38.3516 504.021 38.1055 502.979 37.6133C501.947 37.1094 501.156 36.3359 500.605 35.293C500.055 34.25 499.779 32.9023 499.779 31.25V18.541H503.928V30.4766C503.928 31.9883 504.232 33.1191 504.842 33.8691C505.463 34.6191 506.424 34.9941 507.725 34.9941C508.979 34.9941 509.975 34.7363 510.713 34.2207C511.451 33.7051 511.973 32.9434 512.277 31.9355C512.594 30.9277 512.752 29.6914 512.752 28.2266V18.541H516.9ZM526.955 10.6484V17.2402C526.955 18.002 526.932 18.752 526.885 19.4902C526.85 20.2168 526.814 20.7852 526.779 21.1953H526.955C527.482 20.3516 528.215 19.6426 529.152 19.0684C530.102 18.4824 531.314 18.1895 532.791 18.1895C535.1 18.1895 536.957 19.0391 538.363 20.7383C539.77 22.4258 540.473 24.9277 540.473 28.2441C540.473 30.4473 540.15 32.2988 539.506 33.7988C538.861 35.2988 537.953 36.4355 536.781 37.209C535.621 37.9707 534.256 38.3516 532.686 38.3516C531.209 38.3516 530.014 38.082 529.1 37.543C528.197 36.9922 527.488 36.3535 526.973 35.627H526.674L525.918 38H522.824V10.6484H526.955ZM531.701 21.5469C530.529 21.5469 529.598 21.7812 528.906 22.25C528.227 22.7188 527.734 23.4219 527.43 24.3594C527.125 25.2852 526.967 26.4629 526.955 27.8926V28.2617C526.955 30.4297 527.295 32.0879 527.975 33.2363C528.666 34.3848 529.92 34.959 531.736 34.959C533.178 34.959 534.285 34.3789 535.059 33.2188C535.832 32.0469 536.219 30.3711 536.219 28.1914C536.219 25.9883 535.832 24.3301 535.059 23.2168C534.297 22.1035 533.178 21.5469 531.701 21.5469ZM558.332 32.4453C558.332 33.7227 558.021 34.8008 557.4 35.6797C556.779 36.5586 555.871 37.2266 554.676 37.6836C553.492 38.1289 552.039 38.3516 550.316 38.3516C548.957 38.3516 547.785 38.252 546.801 38.0527C545.828 37.8652 544.908 37.5723 544.041 37.1738V33.6055C544.967 34.0391 546.004 34.4141 547.152 34.7305C548.312 35.0469 549.408 35.2051 550.439 35.2051C551.799 35.2051 552.777 34.9941 553.375 34.5723C553.973 34.1387 554.271 33.5645 554.271 32.8496C554.271 32.4277 554.148 32.0527 553.902 31.7246C553.668 31.3848 553.223 31.0391 552.566 30.6875C551.922 30.3242 550.973 29.8906 549.719 29.3867C548.488 28.8945 547.451 28.4023 546.607 27.9102C545.764 27.418 545.125 26.8262 544.691 26.1348C544.258 25.4316 544.041 24.5352 544.041 23.4453C544.041 21.7227 544.721 20.416 546.08 19.5254C547.451 18.623 549.262 18.1719 551.512 18.1719C552.707 18.1719 553.832 18.2949 554.887 18.541C555.953 18.7754 556.996 19.1211 558.016 19.5781L556.715 22.6895C555.836 22.3027 554.951 21.9863 554.061 21.7402C553.182 21.4824 552.285 21.3535 551.371 21.3535C550.305 21.3535 549.49 21.5176 548.928 21.8457C548.377 22.1738 548.102 22.6426 548.102 23.252C548.102 23.709 548.236 24.0957 548.506 24.4121C548.775 24.7285 549.238 25.0449 549.895 25.3613C550.562 25.6777 551.488 26.0703 552.672 26.5391C553.832 26.9844 554.834 27.4531 555.678 27.9453C556.533 28.4258 557.189 29.0176 557.646 29.7207C558.104 30.4238 558.332 31.332 558.332 32.4453Z" fill="#5F6368"/>
<path d="M71.4609 71.2275H68.1299V69.4785H71.4609C72.041 69.4785 72.5098 69.3848 72.8672 69.1973C73.2246 69.0098 73.4854 68.752 73.6494 68.4238C73.8193 68.0898 73.9043 67.709 73.9043 67.2812C73.9043 66.877 73.8193 66.499 73.6494 66.1475C73.4854 65.79 73.2246 65.5029 72.8672 65.2861C72.5098 65.0693 72.041 64.9609 71.4609 64.9609H68.8066V76H66.6006V63.2031H71.4609C72.4512 63.2031 73.292 63.3789 73.9834 63.7305C74.6807 64.0762 75.2109 64.5566 75.5742 65.1719C75.9375 65.7812 76.1191 66.4785 76.1191 67.2637C76.1191 68.0898 75.9375 68.7988 75.5742 69.3906C75.2109 69.9824 74.6807 70.4365 73.9834 70.7529C73.292 71.0693 72.4512 71.2275 71.4609 71.2275ZM80.1533 66.4902V76H78.0264V66.4902H80.1533ZM77.8857 63.9941C77.8857 63.6719 77.9912 63.4053 78.2021 63.1943C78.4189 62.9775 78.7178 62.8691 79.0986 62.8691C79.4736 62.8691 79.7695 62.9775 79.9863 63.1943C80.2031 63.4053 80.3115 63.6719 80.3115 63.9941C80.3115 64.3105 80.2031 64.5742 79.9863 64.7852C79.7695 64.9961 79.4736 65.1016 79.0986 65.1016C78.7178 65.1016 78.4189 64.9961 78.2021 64.7852C77.9912 64.5742 77.8857 64.3105 77.8857 63.9941ZM84.5918 68.4238V76H82.4736V66.4902H84.4688L84.5918 68.4238ZM84.249 70.8936L83.5283 70.8848C83.5283 70.2285 83.6104 69.6221 83.7744 69.0654C83.9385 68.5088 84.1787 68.0254 84.4951 67.6152C84.8115 67.1992 85.2041 66.8799 85.6729 66.6572C86.1475 66.4287 86.6953 66.3145 87.3164 66.3145C87.75 66.3145 88.1455 66.3789 88.5029 66.5078C88.8662 66.6309 89.1797 66.8271 89.4434 67.0967C89.7129 67.3662 89.918 67.7119 90.0586 68.1338C90.2051 68.5557 90.2783 69.0654 90.2783 69.6631V76H88.1602V69.8477C88.1602 69.3848 88.0898 69.0215 87.9492 68.7578C87.8145 68.4941 87.6182 68.3066 87.3604 68.1953C87.1084 68.0781 86.8066 68.0195 86.4551 68.0195C86.0566 68.0195 85.7168 68.0957 85.4355 68.248C85.1602 68.4004 84.9346 68.6084 84.7588 68.8721C84.583 69.1357 84.4541 69.4404 84.3721 69.7861C84.29 70.1318 84.249 70.501 84.249 70.8936ZM90.1465 70.3311L89.1533 70.5508C89.1533 69.9766 89.2324 69.4346 89.3906 68.9248C89.5547 68.4092 89.792 67.958 90.1025 67.5713C90.4189 67.1787 90.8086 66.8711 91.2715 66.6484C91.7344 66.4258 92.2646 66.3145 92.8623 66.3145C93.3486 66.3145 93.7822 66.3818 94.1631 66.5166C94.5498 66.6455 94.8779 66.8506 95.1475 67.1318C95.417 67.4131 95.6221 67.7793 95.7627 68.2305C95.9033 68.6758 95.9736 69.2148 95.9736 69.8477V76H93.8467V69.8389C93.8467 69.3584 93.7764 68.9863 93.6357 68.7227C93.501 68.459 93.3076 68.2773 93.0557 68.1777C92.8037 68.0723 92.502 68.0195 92.1504 68.0195C91.8223 68.0195 91.5322 68.0811 91.2803 68.2041C91.0342 68.3213 90.8262 68.4883 90.6562 68.7051C90.4863 68.916 90.3574 69.1592 90.2695 69.4346C90.1875 69.71 90.1465 70.0088 90.1465 70.3311ZM100.28 68.3184V79.6562H98.1621V66.4902H100.113L100.28 68.3184ZM106.477 71.1572V71.3418C106.477 72.0332 106.395 72.6748 106.23 73.2666C106.072 73.8525 105.835 74.3652 105.519 74.8047C105.208 75.2383 104.824 75.5752 104.367 75.8154C103.91 76.0557 103.383 76.1758 102.785 76.1758C102.193 76.1758 101.675 76.0674 101.229 75.8506C100.79 75.6279 100.418 75.3145 100.113 74.9102C99.8086 74.5059 99.5625 74.0312 99.375 73.4863C99.1934 72.9355 99.0645 72.332 98.9883 71.6758V70.9639C99.0645 70.2666 99.1934 69.6338 99.375 69.0654C99.5625 68.4971 99.8086 68.0078 100.113 67.5977C100.418 67.1875 100.79 66.8711 101.229 66.6484C101.669 66.4258 102.182 66.3145 102.768 66.3145C103.365 66.3145 103.896 66.4316 104.358 66.666C104.821 66.8945 105.211 67.2227 105.527 67.6504C105.844 68.0723 106.081 68.582 106.239 69.1797C106.397 69.7715 106.477 70.4307 106.477 71.1572ZM104.358 71.3418V71.1572C104.358 70.7178 104.317 70.3105 104.235 69.9355C104.153 69.5547 104.024 69.2207 103.849 68.9336C103.673 68.6465 103.447 68.4238 103.172 68.2656C102.902 68.1016 102.577 68.0195 102.196 68.0195C101.821 68.0195 101.499 68.084 101.229 68.2129C100.96 68.3359 100.734 68.5088 100.553 68.7314C100.371 68.9541 100.23 69.2148 100.131 69.5137C100.031 69.8066 99.9609 70.126 99.9199 70.4717V72.1768C99.9902 72.5986 100.11 72.9854 100.28 73.3369C100.45 73.6885 100.69 73.9697 101.001 74.1807C101.317 74.3857 101.722 74.4883 102.214 74.4883C102.595 74.4883 102.92 74.4062 103.189 74.2422C103.459 74.0781 103.679 73.8525 103.849 73.5654C104.024 73.2725 104.153 72.9355 104.235 72.5547C104.317 72.1738 104.358 71.7695 104.358 71.3418ZM110.405 68.3008V76H108.287V66.4902H110.309L110.405 68.3008ZM113.314 66.4287L113.297 68.3975C113.168 68.374 113.027 68.3564 112.875 68.3447C112.729 68.333 112.582 68.3271 112.436 68.3271C112.072 68.3271 111.753 68.3799 111.478 68.4854C111.202 68.585 110.971 68.7314 110.783 68.9248C110.602 69.1123 110.461 69.3408 110.361 69.6104C110.262 69.8799 110.203 70.1816 110.186 70.5156L109.702 70.5508C109.702 69.9531 109.761 69.3994 109.878 68.8896C109.995 68.3799 110.171 67.9316 110.405 67.5449C110.646 67.1582 110.944 66.8564 111.302 66.6396C111.665 66.4229 112.084 66.3145 112.559 66.3145C112.688 66.3145 112.825 66.3262 112.972 66.3496C113.124 66.373 113.238 66.3994 113.314 66.4287ZM116.909 66.4902V76H114.782V66.4902H116.909ZM114.642 63.9941C114.642 63.6719 114.747 63.4053 114.958 63.1943C115.175 62.9775 115.474 62.8691 115.854 62.8691C116.229 62.8691 116.525 62.9775 116.742 63.1943C116.959 63.4053 117.067 63.6719 117.067 63.9941C117.067 64.3105 116.959 64.5742 116.742 64.7852C116.525 64.9961 116.229 65.1016 115.854 65.1016C115.474 65.1016 115.175 64.9961 114.958 64.7852C114.747 64.5742 114.642 64.3105 114.642 63.9941ZM131.481 71.834H133.679C133.608 72.6719 133.374 73.4189 132.976 74.0752C132.577 74.7256 132.018 75.2383 131.297 75.6133C130.576 75.9883 129.7 76.1758 128.669 76.1758C127.878 76.1758 127.166 76.0352 126.533 75.7539C125.9 75.4668 125.358 75.0625 124.907 74.541C124.456 74.0137 124.11 73.3779 123.87 72.6338C123.636 71.8896 123.519 71.0576 123.519 70.1377V69.0742C123.519 68.1543 123.639 67.3223 123.879 66.5781C124.125 65.834 124.477 65.1982 124.934 64.6709C125.391 64.1377 125.938 63.7305 126.577 63.4492C127.222 63.168 127.945 63.0273 128.748 63.0273C129.768 63.0273 130.629 63.2148 131.332 63.5898C132.035 63.9648 132.58 64.4834 132.967 65.1455C133.359 65.8076 133.6 66.5664 133.688 67.4219H131.49C131.432 66.8711 131.303 66.3994 131.104 66.0068C130.91 65.6143 130.623 65.3154 130.242 65.1104C129.861 64.8994 129.363 64.7939 128.748 64.7939C128.244 64.7939 127.805 64.8877 127.43 65.0752C127.055 65.2627 126.741 65.5381 126.489 65.9014C126.237 66.2646 126.047 66.7129 125.918 67.2461C125.795 67.7734 125.733 68.377 125.733 69.0566V70.1377C125.733 70.7822 125.789 71.3682 125.9 71.8955C126.018 72.417 126.193 72.8652 126.428 73.2402C126.668 73.6152 126.973 73.9053 127.342 74.1104C127.711 74.3154 128.153 74.418 128.669 74.418C129.296 74.418 129.803 74.3184 130.189 74.1191C130.582 73.9199 130.878 73.6299 131.077 73.249C131.282 72.8623 131.417 72.3906 131.481 71.834ZM137.563 62.5V76H135.454V62.5H137.563ZM137.194 70.8936L136.509 70.8848C136.515 70.2285 136.605 69.6221 136.781 69.0654C136.963 68.5088 137.215 68.0254 137.537 67.6152C137.865 67.1992 138.258 66.8799 138.715 66.6572C139.172 66.4287 139.679 66.3145 140.235 66.3145C140.704 66.3145 141.126 66.3789 141.501 66.5078C141.882 66.6367 142.21 66.8447 142.485 67.1318C142.761 67.4131 142.969 67.7822 143.109 68.2393C143.256 68.6904 143.329 69.2412 143.329 69.8916V76H141.202V69.874C141.202 69.417 141.135 69.0537 141 68.7842C140.871 68.5146 140.681 68.3213 140.429 68.2041C140.177 68.0811 139.869 68.0195 139.506 68.0195C139.125 68.0195 138.788 68.0957 138.495 68.248C138.208 68.4004 137.968 68.6084 137.774 68.8721C137.581 69.1357 137.435 69.4404 137.335 69.7861C137.241 70.1318 137.194 70.501 137.194 70.8936ZM147.741 66.4902V76H145.614V66.4902H147.741ZM145.474 63.9941C145.474 63.6719 145.579 63.4053 145.79 63.1943C146.007 62.9775 146.306 62.8691 146.687 62.8691C147.062 62.8691 147.357 62.9775 147.574 63.1943C147.791 63.4053 147.899 63.6719 147.899 63.9941C147.899 64.3105 147.791 64.5742 147.574 64.7852C147.357 64.9961 147.062 65.1016 146.687 65.1016C146.306 65.1016 146.007 64.9961 145.79 64.7852C145.579 64.5742 145.474 64.3105 145.474 63.9941ZM152.162 68.5205V76H150.044V66.4902H152.039L152.162 68.5205ZM151.784 70.8936L151.099 70.8848C151.104 70.2109 151.198 69.5928 151.38 69.0303C151.567 68.4678 151.825 67.9844 152.153 67.5801C152.487 67.1758 152.886 66.8652 153.349 66.6484C153.812 66.4258 154.327 66.3145 154.896 66.3145C155.353 66.3145 155.766 66.3789 156.135 66.5078C156.51 66.6309 156.829 66.833 157.093 67.1143C157.362 67.3955 157.567 67.7617 157.708 68.2129C157.849 68.6582 157.919 69.2061 157.919 69.8564V76H155.792V69.8477C155.792 69.3906 155.725 69.0303 155.59 68.7666C155.461 68.4971 155.271 68.3066 155.019 68.1953C154.772 68.0781 154.465 68.0195 154.096 68.0195C153.732 68.0195 153.407 68.0957 153.12 68.248C152.833 68.4004 152.59 68.6084 152.391 68.8721C152.197 69.1357 152.048 69.4404 151.942 69.7861C151.837 70.1318 151.784 70.501 151.784 70.8936ZM163.966 74.4883C164.312 74.4883 164.622 74.4209 164.897 74.2861C165.179 74.1455 165.404 73.9521 165.574 73.7061C165.75 73.46 165.847 73.1758 165.864 72.8535H167.859C167.848 73.4688 167.666 74.0283 167.314 74.5322C166.963 75.0361 166.497 75.4375 165.917 75.7363C165.337 76.0293 164.695 76.1758 163.992 76.1758C163.266 76.1758 162.633 76.0527 162.094 75.8066C161.555 75.5547 161.106 75.209 160.749 74.7695C160.392 74.3301 160.122 73.8232 159.94 73.249C159.765 72.6748 159.677 72.0596 159.677 71.4033V71.0957C159.677 70.4395 159.765 69.8242 159.94 69.25C160.122 68.6699 160.392 68.1602 160.749 67.7207C161.106 67.2812 161.555 66.9385 162.094 66.6924C162.633 66.4404 163.263 66.3145 163.983 66.3145C164.745 66.3145 165.413 66.4668 165.987 66.7715C166.562 67.0703 167.013 67.4893 167.341 68.0283C167.675 68.5615 167.848 69.1826 167.859 69.8916H165.864C165.847 69.54 165.759 69.2236 165.601 68.9424C165.448 68.6553 165.231 68.4268 164.95 68.2568C164.675 68.0869 164.344 68.002 163.957 68.002C163.529 68.002 163.175 68.0898 162.894 68.2656C162.612 68.4355 162.393 68.6699 162.234 68.9688C162.076 69.2617 161.962 69.5928 161.892 69.9619C161.827 70.3252 161.795 70.7031 161.795 71.0957V71.4033C161.795 71.7959 161.827 72.1768 161.892 72.5459C161.956 72.915 162.067 73.2461 162.226 73.5391C162.39 73.8262 162.612 74.0576 162.894 74.2334C163.175 74.4033 163.532 74.4883 163.966 74.4883ZM171.577 62.5V76H169.468V62.5H171.577ZM171.208 70.8936L170.522 70.8848C170.528 70.2285 170.619 69.6221 170.795 69.0654C170.977 68.5088 171.229 68.0254 171.551 67.6152C171.879 67.1992 172.271 66.8799 172.729 66.6572C173.186 66.4287 173.692 66.3145 174.249 66.3145C174.718 66.3145 175.14 66.3789 175.515 66.5078C175.896 66.6367 176.224 66.8447 176.499 67.1318C176.774 67.4131 176.982 67.7822 177.123 68.2393C177.27 68.6904 177.343 69.2412 177.343 69.8916V76H175.216V69.874C175.216 69.417 175.148 69.0537 175.014 68.7842C174.885 68.5146 174.694 68.3213 174.442 68.2041C174.19 68.0811 173.883 68.0195 173.52 68.0195C173.139 68.0195 172.802 68.0957 172.509 68.248C172.222 68.4004 171.981 68.6084 171.788 68.8721C171.595 69.1357 171.448 69.4404 171.349 69.7861C171.255 70.1318 171.208 70.501 171.208 70.8936ZM182.071 73.8906L184.269 66.4902H185.622L185.253 68.7051L183.038 76H181.825L182.071 73.8906ZM180.779 66.4902L182.493 73.9258L182.634 76H181.28L178.705 66.4902H180.779ZM187.679 73.8379L189.34 66.4902H191.405L188.839 76H187.485L187.679 73.8379ZM185.851 66.4902L188.021 73.8027L188.294 76H187.081L184.84 68.6963L184.471 66.4902H185.851ZM198.208 74.0928V69.5576C198.208 69.2178 198.146 68.9248 198.023 68.6787C197.9 68.4326 197.713 68.2422 197.461 68.1074C197.215 67.9727 196.904 67.9053 196.529 67.9053C196.184 67.9053 195.885 67.9639 195.633 68.0811C195.381 68.1982 195.185 68.3564 195.044 68.5557C194.903 68.7549 194.833 68.9805 194.833 69.2324H192.724C192.724 68.8574 192.814 68.4941 192.996 68.1426C193.178 67.791 193.441 67.4775 193.787 67.2021C194.133 66.9268 194.546 66.71 195.026 66.5518C195.507 66.3936 196.046 66.3145 196.644 66.3145C197.358 66.3145 197.991 66.4346 198.542 66.6748C199.099 66.915 199.535 67.2783 199.852 67.7646C200.174 68.2451 200.335 68.8486 200.335 69.5752V73.8027C200.335 74.2363 200.364 74.626 200.423 74.9717C200.487 75.3115 200.578 75.6074 200.695 75.8594V76H198.524C198.425 75.7715 198.346 75.4814 198.287 75.1299C198.234 74.7725 198.208 74.4268 198.208 74.0928ZM198.516 70.2168L198.533 71.5264H197.013C196.62 71.5264 196.274 71.5645 195.976 71.6406C195.677 71.7109 195.428 71.8164 195.229 71.957C195.029 72.0977 194.88 72.2676 194.78 72.4668C194.681 72.666 194.631 72.8916 194.631 73.1436C194.631 73.3955 194.689 73.627 194.807 73.8379C194.924 74.043 195.094 74.2041 195.316 74.3213C195.545 74.4385 195.82 74.4971 196.143 74.4971C196.576 74.4971 196.954 74.4092 197.276 74.2334C197.604 74.0518 197.862 73.832 198.05 73.5742C198.237 73.3105 198.337 73.0615 198.349 72.8271L199.034 73.7676C198.964 74.0078 198.844 74.2656 198.674 74.541C198.504 74.8164 198.281 75.0801 198.006 75.332C197.736 75.5781 197.411 75.7803 197.03 75.9385C196.655 76.0967 196.222 76.1758 195.729 76.1758C195.108 76.1758 194.555 76.0527 194.068 75.8066C193.582 75.5547 193.201 75.2178 192.926 74.7959C192.65 74.3682 192.513 73.8848 192.513 73.3457C192.513 72.8418 192.606 72.3965 192.794 72.0098C192.987 71.6172 193.269 71.2891 193.638 71.0254C194.013 70.7617 194.47 70.5625 195.009 70.4277C195.548 70.2871 196.163 70.2168 196.854 70.2168H198.516ZM208.351 74.0312V62.5H210.478V76H208.553L208.351 74.0312ZM202.163 71.3506V71.166C202.163 70.4453 202.248 69.7891 202.418 69.1973C202.588 68.5996 202.834 68.0869 203.156 67.6592C203.479 67.2256 203.871 66.8945 204.334 66.666C204.797 66.4316 205.318 66.3145 205.898 66.3145C206.473 66.3145 206.977 66.4258 207.41 66.6484C207.844 66.8711 208.213 67.1904 208.518 67.6064C208.822 68.0166 209.065 68.5088 209.247 69.083C209.429 69.6514 209.558 70.2842 209.634 70.9814V71.5703C209.558 72.25 209.429 72.8711 209.247 73.4336C209.065 73.9961 208.822 74.4824 208.518 74.8926C208.213 75.3027 207.841 75.6191 207.401 75.8418C206.968 76.0645 206.461 76.1758 205.881 76.1758C205.307 76.1758 204.788 76.0557 204.325 75.8154C203.868 75.5752 203.479 75.2383 203.156 74.8047C202.834 74.3711 202.588 73.8613 202.418 73.2754C202.248 72.6836 202.163 72.042 202.163 71.3506ZM204.281 71.166V71.3506C204.281 71.7842 204.319 72.1885 204.396 72.5635C204.478 72.9385 204.604 73.2695 204.773 73.5566C204.943 73.8379 205.163 74.0605 205.433 74.2246C205.708 74.3828 206.036 74.4619 206.417 74.4619C206.897 74.4619 207.293 74.3564 207.604 74.1455C207.914 73.9346 208.157 73.6504 208.333 73.293C208.515 72.9297 208.638 72.5254 208.702 72.0801V70.4893C208.667 70.1436 208.594 69.8213 208.482 69.5225C208.377 69.2236 208.233 68.9629 208.052 68.7402C207.87 68.5117 207.645 68.3359 207.375 68.2129C207.111 68.084 206.798 68.0195 206.435 68.0195C206.048 68.0195 205.72 68.1016 205.45 68.2656C205.181 68.4297 204.958 68.6553 204.782 68.9424C204.612 69.2295 204.486 69.5635 204.404 69.9443C204.322 70.3252 204.281 70.7324 204.281 71.166ZM224.944 71.834H227.142C227.071 72.6719 226.837 73.4189 226.438 74.0752C226.04 74.7256 225.48 75.2383 224.76 75.6133C224.039 75.9883 223.163 76.1758 222.132 76.1758C221.341 76.1758 220.629 76.0352 219.996 75.7539C219.363 75.4668 218.821 75.0625 218.37 74.541C217.919 74.0137 217.573 73.3779 217.333 72.6338C217.099 71.8896 216.981 71.0576 216.981 70.1377V69.0742C216.981 68.1543 217.102 67.3223 217.342 66.5781C217.588 65.834 217.939 65.1982 218.396 64.6709C218.854 64.1377 219.401 63.7305 220.04 63.4492C220.685 63.168 221.408 63.0273 222.211 63.0273C223.23 63.0273 224.092 63.2148 224.795 63.5898C225.498 63.9648 226.043 64.4834 226.43 65.1455C226.822 65.8076 227.062 66.5664 227.15 67.4219H224.953C224.895 66.8711 224.766 66.3994 224.566 66.0068C224.373 65.6143 224.086 65.3154 223.705 65.1104C223.324 64.8994 222.826 64.7939 222.211 64.7939C221.707 64.7939 221.268 64.8877 220.893 65.0752C220.518 65.2627 220.204 65.5381 219.952 65.9014C219.7 66.2646 219.51 66.7129 219.381 67.2461C219.258 67.7734 219.196 68.377 219.196 69.0566V70.1377C219.196 70.7822 219.252 71.3682 219.363 71.8955C219.48 72.417 219.656 72.8652 219.891 73.2402C220.131 73.6152 220.436 73.9053 220.805 74.1104C221.174 74.3154 221.616 74.418 222.132 74.418C222.759 74.418 223.266 74.3184 223.652 74.1191C224.045 73.9199 224.341 73.6299 224.54 73.249C224.745 72.8623 224.88 72.3906 224.944 71.834ZM228.53 71.3506V71.1484C228.53 70.4629 228.63 69.8271 228.829 69.2412C229.028 68.6494 229.315 68.1367 229.69 67.7031C230.071 67.2637 230.534 66.9238 231.079 66.6836C231.63 66.4375 232.251 66.3145 232.942 66.3145C233.64 66.3145 234.261 66.4375 234.806 66.6836C235.356 66.9238 235.822 67.2637 236.203 67.7031C236.584 68.1367 236.874 68.6494 237.073 69.2412C237.272 69.8271 237.372 70.4629 237.372 71.1484V71.3506C237.372 72.0361 237.272 72.6719 237.073 73.2578C236.874 73.8438 236.584 74.3564 236.203 74.7959C235.822 75.2295 235.359 75.5693 234.814 75.8154C234.27 76.0557 233.651 76.1758 232.96 76.1758C232.263 76.1758 231.639 76.0557 231.088 75.8154C230.543 75.5693 230.08 75.2295 229.699 74.7959C229.318 74.3564 229.028 73.8438 228.829 73.2578C228.63 72.6719 228.53 72.0361 228.53 71.3506ZM230.648 71.1484V71.3506C230.648 71.7783 230.692 72.1826 230.78 72.5635C230.868 72.9443 231.006 73.2783 231.193 73.5654C231.381 73.8525 231.621 74.0781 231.914 74.2422C232.207 74.4062 232.556 74.4883 232.96 74.4883C233.353 74.4883 233.692 74.4062 233.979 74.2422C234.272 74.0781 234.513 73.8525 234.7 73.5654C234.888 73.2783 235.025 72.9443 235.113 72.5635C235.207 72.1826 235.254 71.7783 235.254 71.3506V71.1484C235.254 70.7266 235.207 70.3281 235.113 69.9531C235.025 69.5723 234.885 69.2354 234.691 68.9424C234.504 68.6494 234.264 68.4209 233.971 68.2568C233.684 68.0869 233.341 68.002 232.942 68.002C232.544 68.002 232.198 68.0869 231.905 68.2568C231.618 68.4209 231.381 68.6494 231.193 68.9424C231.006 69.2354 230.868 69.5723 230.78 69.9531C230.692 70.3281 230.648 70.7266 230.648 71.1484ZM241.415 62.5V76H239.288V62.5H241.415ZM246.003 62.5V76H243.876V62.5H246.003ZM252.516 76.1758C251.812 76.1758 251.177 76.0615 250.608 75.833C250.046 75.5986 249.565 75.2734 249.167 74.8574C248.774 74.4414 248.473 73.9521 248.262 73.3896C248.051 72.8271 247.945 72.2207 247.945 71.5703V71.2188C247.945 70.4746 248.054 69.8008 248.271 69.1973C248.487 68.5938 248.789 68.0781 249.176 67.6504C249.562 67.2168 250.02 66.8857 250.547 66.6572C251.074 66.4287 251.646 66.3145 252.261 66.3145C252.94 66.3145 253.535 66.4287 254.045 66.6572C254.555 66.8857 254.977 67.208 255.311 67.624C255.65 68.0342 255.902 68.5234 256.066 69.0918C256.236 69.6602 256.321 70.2871 256.321 70.9727V71.8779H248.974V70.3574H254.229V70.1904C254.218 69.8096 254.142 69.4521 254.001 69.1182C253.866 68.7842 253.658 68.5146 253.377 68.3096C253.096 68.1045 252.721 68.002 252.252 68.002C251.9 68.002 251.587 68.0781 251.312 68.2305C251.042 68.377 250.816 68.5908 250.635 68.8721C250.453 69.1533 250.312 69.4932 250.213 69.8916C250.119 70.2842 250.072 70.7266 250.072 71.2188V71.5703C250.072 71.9863 250.128 72.373 250.239 72.7305C250.356 73.082 250.526 73.3896 250.749 73.6533C250.972 73.917 251.241 74.125 251.558 74.2773C251.874 74.4238 252.234 74.4971 252.639 74.4971C253.148 74.4971 253.603 74.3945 254.001 74.1895C254.399 73.9844 254.745 73.6943 255.038 73.3193L256.154 74.4004C255.949 74.6992 255.683 74.9863 255.354 75.2617C255.026 75.5312 254.625 75.751 254.15 75.9209C253.682 76.0908 253.137 76.1758 252.516 76.1758ZM264.064 66.4902H265.989V75.7363C265.989 76.5918 265.808 77.3184 265.444 77.916C265.081 78.5137 264.574 78.9678 263.924 79.2783C263.273 79.5947 262.521 79.7529 261.665 79.7529C261.302 79.7529 260.897 79.7002 260.452 79.5947C260.013 79.4893 259.585 79.3193 259.169 79.085C258.759 78.8564 258.416 78.5547 258.141 78.1797L259.134 76.9316C259.474 77.3359 259.849 77.6318 260.259 77.8193C260.669 78.0068 261.1 78.1006 261.551 78.1006C262.037 78.1006 262.45 78.0098 262.79 77.8281C263.136 77.6523 263.402 77.3916 263.59 77.0459C263.777 76.7002 263.871 76.2783 263.871 75.7803V68.6436L264.064 66.4902ZM257.604 71.3506V71.166C257.604 70.4453 257.692 69.7891 257.868 69.1973C258.044 68.5996 258.296 68.0869 258.624 67.6592C258.952 67.2256 259.351 66.8945 259.819 66.666C260.288 66.4316 260.818 66.3145 261.41 66.3145C262.025 66.3145 262.55 66.4258 262.983 66.6484C263.423 66.8711 263.789 67.1904 264.082 67.6064C264.375 68.0166 264.604 68.5088 264.768 69.083C264.938 69.6514 265.063 70.2842 265.146 70.9814V71.5703C265.069 72.25 264.94 72.8711 264.759 73.4336C264.577 73.9961 264.337 74.4824 264.038 74.8926C263.739 75.3027 263.37 75.6191 262.931 75.8418C262.497 76.0645 261.984 76.1758 261.393 76.1758C260.812 76.1758 260.288 76.0557 259.819 75.8154C259.356 75.5752 258.958 75.2383 258.624 74.8047C258.296 74.3711 258.044 73.8613 257.868 73.2754C257.692 72.6836 257.604 72.042 257.604 71.3506ZM259.723 71.166V71.3506C259.723 71.7842 259.764 72.1885 259.846 72.5635C259.934 72.9385 260.065 73.2695 260.241 73.5566C260.423 73.8379 260.651 74.0605 260.927 74.2246C261.208 74.3828 261.539 74.4619 261.92 74.4619C262.418 74.4619 262.825 74.3564 263.142 74.1455C263.464 73.9346 263.71 73.6504 263.88 73.293C264.056 72.9297 264.179 72.5254 264.249 72.0801V70.4893C264.214 70.1436 264.141 69.8213 264.029 69.5225C263.924 69.2236 263.78 68.9629 263.599 68.7402C263.417 68.5117 263.188 68.3359 262.913 68.2129C262.638 68.084 262.312 68.0195 261.938 68.0195C261.557 68.0195 261.226 68.1016 260.944 68.2656C260.663 68.4297 260.432 68.6553 260.25 68.9424C260.074 69.2295 259.942 69.5635 259.854 69.9443C259.767 70.3252 259.723 70.7324 259.723 71.166ZM272.379 76.1758C271.676 76.1758 271.04 76.0615 270.472 75.833C269.909 75.5986 269.429 75.2734 269.03 74.8574C268.638 74.4414 268.336 73.9521 268.125 73.3896C267.914 72.8271 267.809 72.2207 267.809 71.5703V71.2188C267.809 70.4746 267.917 69.8008 268.134 69.1973C268.351 68.5938 268.652 68.0781 269.039 67.6504C269.426 67.2168 269.883 66.8857 270.41 66.6572C270.938 66.4287 271.509 66.3145 272.124 66.3145C272.804 66.3145 273.398 66.4287 273.908 66.6572C274.418 66.8857 274.84 67.208 275.174 67.624C275.514 68.0342 275.766 68.5234 275.93 69.0918C276.1 69.6602 276.185 70.2871 276.185 70.9727V71.8779H268.837V70.3574H274.093V70.1904C274.081 69.8096 274.005 69.4521 273.864 69.1182C273.729 68.7842 273.521 68.5146 273.24 68.3096C272.959 68.1045 272.584 68.002 272.115 68.002C271.764 68.002 271.45 68.0781 271.175 68.2305C270.905 68.377 270.68 68.5908 270.498 68.8721C270.316 69.1533 270.176 69.4932 270.076 69.8916C269.982 70.2842 269.936 70.7266 269.936 71.2188V71.5703C269.936 71.9863 269.991 72.373 270.103 72.7305C270.22 73.082 270.39 73.3896 270.612 73.6533C270.835 73.917 271.104 74.125 271.421 74.2773C271.737 74.4238 272.098 74.4971 272.502 74.4971C273.012 74.4971 273.466 74.3945 273.864 74.1895C274.263 73.9844 274.608 73.6943 274.901 73.3193L276.018 74.4004C275.812 74.6992 275.546 74.9863 275.218 75.2617C274.89 75.5312 274.488 75.751 274.014 75.9209C273.545 76.0908 273 76.1758 272.379 76.1758ZM292.734 69.25V69.9531C292.734 70.9199 292.608 71.7871 292.356 72.5547C292.104 73.3223 291.744 73.9756 291.275 74.5146C290.812 75.0537 290.256 75.4668 289.605 75.7539C288.955 76.0352 288.234 76.1758 287.443 76.1758C286.658 76.1758 285.94 76.0352 285.29 75.7539C284.646 75.4668 284.086 75.0537 283.611 74.5146C283.137 73.9756 282.768 73.3223 282.504 72.5547C282.246 71.7871 282.117 70.9199 282.117 69.9531V69.25C282.117 68.2832 282.246 67.4189 282.504 66.6572C282.762 65.8896 283.125 65.2363 283.594 64.6973C284.068 64.1523 284.628 63.7393 285.272 63.458C285.923 63.1709 286.641 63.0273 287.426 63.0273C288.217 63.0273 288.938 63.1709 289.588 63.458C290.238 63.7393 290.798 64.1523 291.267 64.6973C291.735 65.2363 292.096 65.8896 292.348 66.6572C292.605 67.4189 292.734 68.2832 292.734 69.25ZM290.528 69.9531V69.2324C290.528 68.5176 290.458 67.8877 290.317 67.3428C290.183 66.792 289.98 66.332 289.711 65.9629C289.447 65.5879 289.122 65.3066 288.735 65.1191C288.349 64.9258 287.912 64.8291 287.426 64.8291C286.939 64.8291 286.506 64.9258 286.125 65.1191C285.744 65.3066 285.419 65.5879 285.149 65.9629C284.886 66.332 284.684 66.792 284.543 67.3428C284.402 67.8877 284.332 68.5176 284.332 69.2324V69.9531C284.332 70.668 284.402 71.3008 284.543 71.8516C284.684 72.4023 284.889 72.8682 285.158 73.249C285.434 73.624 285.762 73.9082 286.143 74.1016C286.523 74.2891 286.957 74.3828 287.443 74.3828C287.936 74.3828 288.372 74.2891 288.753 74.1016C289.134 73.9082 289.456 73.624 289.72 73.249C289.983 72.8682 290.183 72.4023 290.317 71.8516C290.458 71.3008 290.528 70.668 290.528 69.9531ZM297.595 76H295.477V65.5762C295.477 64.8672 295.608 64.2725 295.872 63.792C296.142 63.3057 296.525 62.9395 297.023 62.6934C297.521 62.4414 298.11 62.3154 298.79 62.3154C299.001 62.3154 299.209 62.3301 299.414 62.3594C299.619 62.3828 299.818 62.4209 300.012 62.4736L299.959 64.1084C299.842 64.0791 299.713 64.0586 299.572 64.0469C299.438 64.0352 299.291 64.0293 299.133 64.0293C298.811 64.0293 298.532 64.0908 298.298 64.2139C298.069 64.3311 297.894 64.5039 297.771 64.7324C297.653 64.9609 297.595 65.2422 297.595 65.5762V76ZM299.555 66.4902V68.0371H294.018V66.4902H299.555ZM314.162 74.251V76H307.368V74.251H314.162ZM307.992 63.2031V76H305.786V63.2031H307.992ZM313.274 68.5469V70.2695H307.368V68.5469H313.274ZM314.118 63.2031V64.9609H307.368V63.2031H314.118ZM317.854 68.5205V76H315.735V66.4902H317.73L317.854 68.5205ZM317.476 70.8936L316.79 70.8848C316.796 70.2109 316.89 69.5928 317.071 69.0303C317.259 68.4678 317.517 67.9844 317.845 67.5801C318.179 67.1758 318.577 66.8652 319.04 66.6484C319.503 66.4258 320.019 66.3145 320.587 66.3145C321.044 66.3145 321.457 66.3789 321.826 66.5078C322.201 66.6309 322.521 66.833 322.784 67.1143C323.054 67.3955 323.259 67.7617 323.399 68.2129C323.54 68.6582 323.61 69.2061 323.61 69.8564V76H321.483V69.8477C321.483 69.3906 321.416 69.0303 321.281 68.7666C321.152 68.4971 320.962 68.3066 320.71 68.1953C320.464 68.0781 320.156 68.0195 319.787 68.0195C319.424 68.0195 319.099 68.0957 318.812 68.248C318.524 68.4004 318.281 68.6084 318.082 68.8721C317.889 69.1357 317.739 69.4404 317.634 69.7861C317.528 70.1318 317.476 70.501 317.476 70.8936ZM331.863 66.4902H333.788V75.7363C333.788 76.5918 333.606 77.3184 333.243 77.916C332.88 78.5137 332.373 78.9678 331.723 79.2783C331.072 79.5947 330.319 79.7529 329.464 79.7529C329.101 79.7529 328.696 79.7002 328.251 79.5947C327.812 79.4893 327.384 79.3193 326.968 79.085C326.558 78.8564 326.215 78.5547 325.939 78.1797L326.933 76.9316C327.272 77.3359 327.647 77.6318 328.058 77.8193C328.468 78.0068 328.898 78.1006 329.35 78.1006C329.836 78.1006 330.249 78.0098 330.589 77.8281C330.935 77.6523 331.201 77.3916 331.389 77.0459C331.576 76.7002 331.67 76.2783 331.67 75.7803V68.6436L331.863 66.4902ZM325.403 71.3506V71.166C325.403 70.4453 325.491 69.7891 325.667 69.1973C325.843 68.5996 326.095 68.0869 326.423 67.6592C326.751 67.2256 327.149 66.8945 327.618 66.666C328.087 66.4316 328.617 66.3145 329.209 66.3145C329.824 66.3145 330.349 66.4258 330.782 66.6484C331.222 66.8711 331.588 67.1904 331.881 67.6064C332.174 68.0166 332.402 68.5088 332.566 69.083C332.736 69.6514 332.862 70.2842 332.944 70.9814V71.5703C332.868 72.25 332.739 72.8711 332.558 73.4336C332.376 73.9961 332.136 74.4824 331.837 74.8926C331.538 75.3027 331.169 75.6191 330.729 75.8418C330.296 76.0645 329.783 76.1758 329.191 76.1758C328.611 76.1758 328.087 76.0557 327.618 75.8154C327.155 75.5752 326.757 75.2383 326.423 74.8047C326.095 74.3711 325.843 73.8613 325.667 73.2754C325.491 72.6836 325.403 72.042 325.403 71.3506ZM327.521 71.166V71.3506C327.521 71.7842 327.562 72.1885 327.645 72.5635C327.732 72.9385 327.864 73.2695 328.04 73.5566C328.222 73.8379 328.45 74.0605 328.726 74.2246C329.007 74.3828 329.338 74.4619 329.719 74.4619C330.217 74.4619 330.624 74.3564 330.94 74.1455C331.263 73.9346 331.509 73.6504 331.679 73.293C331.854 72.9297 331.978 72.5254 332.048 72.0801V70.4893C332.013 70.1436 331.939 69.8213 331.828 69.5225C331.723 69.2236 331.579 68.9629 331.397 68.7402C331.216 68.5117 330.987 68.3359 330.712 68.2129C330.437 68.084 330.111 68.0195 329.736 68.0195C329.355 68.0195 329.024 68.1016 328.743 68.2656C328.462 68.4297 328.23 68.6553 328.049 68.9424C327.873 69.2295 327.741 69.5635 327.653 69.9443C327.565 70.3252 327.521 70.7324 327.521 71.166ZM338.253 66.4902V76H336.126V66.4902H338.253ZM335.985 63.9941C335.985 63.6719 336.091 63.4053 336.302 63.1943C336.519 62.9775 336.817 62.8691 337.198 62.8691C337.573 62.8691 337.869 62.9775 338.086 63.1943C338.303 63.4053 338.411 63.6719 338.411 63.9941C338.411 64.3105 338.303 64.5742 338.086 64.7852C337.869 64.9961 337.573 65.1016 337.198 65.1016C336.817 65.1016 336.519 64.9961 336.302 64.7852C336.091 64.5742 335.985 64.3105 335.985 63.9941ZM342.674 68.5205V76H340.556V66.4902H342.551L342.674 68.5205ZM342.296 70.8936L341.61 70.8848C341.616 70.2109 341.71 69.5928 341.892 69.0303C342.079 68.4678 342.337 67.9844 342.665 67.5801C342.999 67.1758 343.397 66.8652 343.86 66.6484C344.323 66.4258 344.839 66.3145 345.407 66.3145C345.864 66.3145 346.277 66.3789 346.646 66.5078C347.021 66.6309 347.341 66.833 347.604 67.1143C347.874 67.3955 348.079 67.7617 348.22 68.2129C348.36 68.6582 348.431 69.2061 348.431 69.8564V76H346.304V69.8477C346.304 69.3906 346.236 69.0303 346.102 68.7666C345.973 68.4971 345.782 68.3066 345.53 68.1953C345.284 68.0781 344.977 68.0195 344.607 68.0195C344.244 68.0195 343.919 68.0957 343.632 68.248C343.345 68.4004 343.102 68.6084 342.902 68.8721C342.709 69.1357 342.56 69.4404 342.454 69.7861C342.349 70.1318 342.296 70.501 342.296 70.8936ZM354.785 76.1758C354.082 76.1758 353.446 76.0615 352.878 75.833C352.315 75.5986 351.835 75.2734 351.437 74.8574C351.044 74.4414 350.742 73.9521 350.531 73.3896C350.32 72.8271 350.215 72.2207 350.215 71.5703V71.2188C350.215 70.4746 350.323 69.8008 350.54 69.1973C350.757 68.5938 351.059 68.0781 351.445 67.6504C351.832 67.2168 352.289 66.8857 352.816 66.6572C353.344 66.4287 353.915 66.3145 354.53 66.3145C355.21 66.3145 355.805 66.4287 356.314 66.6572C356.824 66.8857 357.246 67.208 357.58 67.624C357.92 68.0342 358.172 68.5234 358.336 69.0918C358.506 69.6602 358.591 70.2871 358.591 70.9727V71.8779H351.243V70.3574H356.499V70.1904C356.487 69.8096 356.411 69.4521 356.271 69.1182C356.136 68.7842 355.928 68.5146 355.646 68.3096C355.365 68.1045 354.99 68.002 354.521 68.002C354.17 68.002 353.856 68.0781 353.581 68.2305C353.312 68.377 353.086 68.5908 352.904 68.8721C352.723 69.1533 352.582 69.4932 352.482 69.8916C352.389 70.2842 352.342 70.7266 352.342 71.2188V71.5703C352.342 71.9863 352.397 72.373 352.509 72.7305C352.626 73.082 352.796 73.3896 353.019 73.6533C353.241 73.917 353.511 74.125 353.827 74.2773C354.144 74.4238 354.504 74.4971 354.908 74.4971C355.418 74.4971 355.872 74.3945 356.271 74.1895C356.669 73.9844 357.015 73.6943 357.308 73.3193L358.424 74.4004C358.219 74.6992 357.952 74.9863 357.624 75.2617C357.296 75.5312 356.895 75.751 356.42 75.9209C355.951 76.0908 355.406 76.1758 354.785 76.1758ZM364.436 76.1758C363.732 76.1758 363.097 76.0615 362.528 75.833C361.966 75.5986 361.485 75.2734 361.087 74.8574C360.694 74.4414 360.393 73.9521 360.182 73.3896C359.971 72.8271 359.865 72.2207 359.865 71.5703V71.2188C359.865 70.4746 359.974 69.8008 360.19 69.1973C360.407 68.5938 360.709 68.0781 361.096 67.6504C361.482 67.2168 361.939 66.8857 362.467 66.6572C362.994 66.4287 363.565 66.3145 364.181 66.3145C364.86 66.3145 365.455 66.4287 365.965 66.6572C366.475 66.8857 366.896 67.208 367.23 67.624C367.57 68.0342 367.822 68.5234 367.986 69.0918C368.156 69.6602 368.241 70.2871 368.241 70.9727V71.8779H360.894V70.3574H366.149V70.1904C366.138 69.8096 366.062 69.4521 365.921 69.1182C365.786 68.7842 365.578 68.5146 365.297 68.3096C365.016 68.1045 364.641 68.002 364.172 68.002C363.82 68.002 363.507 68.0781 363.231 68.2305C362.962 68.377 362.736 68.5908 362.555 68.8721C362.373 69.1533 362.232 69.4932 362.133 69.8916C362.039 70.2842 361.992 70.7266 361.992 71.2188V71.5703C361.992 71.9863 362.048 72.373 362.159 72.7305C362.276 73.082 362.446 73.3896 362.669 73.6533C362.892 73.917 363.161 74.125 363.478 74.2773C363.794 74.4238 364.154 74.4971 364.559 74.4971C365.068 74.4971 365.522 74.3945 365.921 74.1895C366.319 73.9844 366.665 73.6943 366.958 73.3193L368.074 74.4004C367.869 74.6992 367.603 74.9863 367.274 75.2617C366.946 75.5312 366.545 75.751 366.07 75.9209C365.602 76.0908 365.057 76.1758 364.436 76.1758ZM372.021 68.3008V76H369.902V66.4902H371.924L372.021 68.3008ZM374.93 66.4287L374.912 68.3975C374.783 68.374 374.643 68.3564 374.49 68.3447C374.344 68.333 374.197 68.3271 374.051 68.3271C373.688 68.3271 373.368 68.3799 373.093 68.4854C372.817 68.585 372.586 68.7314 372.398 68.9248C372.217 69.1123 372.076 69.3408 371.977 69.6104C371.877 69.8799 371.818 70.1816 371.801 70.5156L371.317 70.5508C371.317 69.9531 371.376 69.3994 371.493 68.8896C371.61 68.3799 371.786 67.9316 372.021 67.5449C372.261 67.1582 372.56 66.8564 372.917 66.6396C373.28 66.4229 373.699 66.3145 374.174 66.3145C374.303 66.3145 374.44 66.3262 374.587 66.3496C374.739 66.373 374.854 66.3994 374.93 66.4287ZM378.524 66.4902V76H376.397V66.4902H378.524ZM376.257 63.9941C376.257 63.6719 376.362 63.4053 376.573 63.1943C376.79 62.9775 377.089 62.8691 377.47 62.8691C377.845 62.8691 378.141 62.9775 378.357 63.1943C378.574 63.4053 378.683 63.6719 378.683 63.9941C378.683 64.3105 378.574 64.5742 378.357 64.7852C378.141 64.9961 377.845 65.1016 377.47 65.1016C377.089 65.1016 376.79 64.9961 376.573 64.7852C376.362 64.5742 376.257 64.3105 376.257 63.9941ZM382.945 68.5205V76H380.827V66.4902H382.822L382.945 68.5205ZM382.567 70.8936L381.882 70.8848C381.888 70.2109 381.981 69.5928 382.163 69.0303C382.351 68.4678 382.608 67.9844 382.937 67.5801C383.271 67.1758 383.669 66.8652 384.132 66.6484C384.595 66.4258 385.11 66.3145 385.679 66.3145C386.136 66.3145 386.549 66.3789 386.918 66.5078C387.293 66.6309 387.612 66.833 387.876 67.1143C388.146 67.3955 388.351 67.7617 388.491 68.2129C388.632 68.6582 388.702 69.2061 388.702 69.8564V76H386.575V69.8477C386.575 69.3906 386.508 69.0303 386.373 68.7666C386.244 68.4971 386.054 68.3066 385.802 68.1953C385.556 68.0781 385.248 68.0195 384.879 68.0195C384.516 68.0195 384.19 68.0957 383.903 68.248C383.616 68.4004 383.373 68.6084 383.174 68.8721C382.98 69.1357 382.831 69.4404 382.726 69.7861C382.62 70.1318 382.567 70.501 382.567 70.8936ZM396.955 66.4902H398.88V75.7363C398.88 76.5918 398.698 77.3184 398.335 77.916C397.972 78.5137 397.465 78.9678 396.814 79.2783C396.164 79.5947 395.411 79.7529 394.556 79.7529C394.192 79.7529 393.788 79.7002 393.343 79.5947C392.903 79.4893 392.476 79.3193 392.06 79.085C391.649 78.8564 391.307 78.5547 391.031 78.1797L392.024 76.9316C392.364 77.3359 392.739 77.6318 393.149 77.8193C393.56 78.0068 393.99 78.1006 394.441 78.1006C394.928 78.1006 395.341 78.0098 395.681 77.8281C396.026 77.6523 396.293 77.3916 396.48 77.0459C396.668 76.7002 396.762 76.2783 396.762 75.7803V68.6436L396.955 66.4902ZM390.495 71.3506V71.166C390.495 70.4453 390.583 69.7891 390.759 69.1973C390.935 68.5996 391.187 68.0869 391.515 67.6592C391.843 67.2256 392.241 66.8945 392.71 66.666C393.179 66.4316 393.709 66.3145 394.301 66.3145C394.916 66.3145 395.44 66.4258 395.874 66.6484C396.313 66.8711 396.68 67.1904 396.973 67.6064C397.266 68.0166 397.494 68.5088 397.658 69.083C397.828 69.6514 397.954 70.2842 398.036 70.9814V71.5703C397.96 72.25 397.831 72.8711 397.649 73.4336C397.468 73.9961 397.228 74.4824 396.929 74.8926C396.63 75.3027 396.261 75.6191 395.821 75.8418C395.388 76.0645 394.875 76.1758 394.283 76.1758C393.703 76.1758 393.179 76.0557 392.71 75.8154C392.247 75.5752 391.849 75.2383 391.515 74.8047C391.187 74.3711 390.935 73.8613 390.759 73.2754C390.583 72.6836 390.495 72.042 390.495 71.3506ZM392.613 71.166V71.3506C392.613 71.7842 392.654 72.1885 392.736 72.5635C392.824 72.9385 392.956 73.2695 393.132 73.5566C393.313 73.8379 393.542 74.0605 393.817 74.2246C394.099 74.3828 394.43 74.4619 394.811 74.4619C395.309 74.4619 395.716 74.3564 396.032 74.1455C396.354 73.9346 396.601 73.6504 396.771 73.293C396.946 72.9297 397.069 72.5254 397.14 72.0801V70.4893C397.104 70.1436 397.031 69.8213 396.92 69.5225C396.814 69.2236 396.671 68.9629 396.489 68.7402C396.308 68.5117 396.079 68.3359 395.804 68.2129C395.528 68.084 395.203 68.0195 394.828 68.0195C394.447 68.0195 394.116 68.1016 393.835 68.2656C393.554 68.4297 393.322 68.6553 393.141 68.9424C392.965 69.2295 392.833 69.5635 392.745 69.9443C392.657 70.3252 392.613 70.7324 392.613 71.166ZM407.748 69.0391L409.954 67.5537C410.323 67.3076 410.587 67.0674 410.745 66.833C410.903 66.5928 410.982 66.2939 410.982 65.9365C410.982 65.6318 410.865 65.3506 410.631 65.0928C410.396 64.835 410.065 64.7061 409.638 64.7061C409.339 64.7061 409.087 64.7764 408.882 64.917C408.677 65.0518 408.521 65.2334 408.416 65.4619C408.316 65.6846 408.267 65.9336 408.267 66.209C408.267 66.4727 408.334 66.7451 408.469 67.0264C408.604 67.3018 408.788 67.5918 409.022 67.8965C409.257 68.1953 409.521 68.5176 409.813 68.8633L415.86 76H413.408L408.469 70.1904C408.041 69.6748 407.663 69.2031 407.335 68.7754C407.007 68.3418 406.752 67.9229 406.57 67.5186C406.389 67.1084 406.298 66.6865 406.298 66.2529C406.298 65.585 406.436 65.0107 406.711 64.5303C406.986 64.0498 407.376 63.6807 407.88 63.4229C408.384 63.1592 408.973 63.0273 409.646 63.0273C410.297 63.0273 410.856 63.1592 411.325 63.4229C411.8 63.6807 412.163 64.0234 412.415 64.4512C412.673 64.8789 412.802 65.3477 412.802 65.8574C412.802 66.2617 412.729 66.6309 412.582 66.9648C412.436 67.2988 412.233 67.6035 411.976 67.8789C411.718 68.1543 411.419 68.415 411.079 68.6611L408.398 70.6123C408.088 70.8643 407.856 71.1074 407.704 71.3418C407.558 71.5703 407.461 71.7812 407.414 71.9746C407.367 72.168 407.344 72.3379 407.344 72.4844C407.344 72.8594 407.423 73.1992 407.581 73.5039C407.745 73.8086 407.982 74.0518 408.293 74.2334C408.609 74.4092 408.993 74.4971 409.444 74.4971C409.931 74.4971 410.402 74.3887 410.859 74.1719C411.316 73.9492 411.727 73.6357 412.09 73.2314C412.453 72.8271 412.74 72.3438 412.951 71.7812C413.168 71.2188 413.276 70.5947 413.276 69.9092H415.104C415.104 70.5303 415.043 71.1191 414.92 71.6758C414.803 72.2324 414.612 72.748 414.349 73.2227C414.091 73.6973 413.751 74.1221 413.329 74.4971C413.288 74.5381 413.241 74.5908 413.188 74.6553C413.142 74.7139 413.095 74.7637 413.048 74.8047C412.544 75.2676 411.979 75.6133 411.352 75.8418C410.73 76.0645 410.068 76.1758 409.365 76.1758C408.516 76.1758 407.78 76.0205 407.159 75.71C406.538 75.3994 406.058 74.9717 405.718 74.4268C405.384 73.8818 405.217 73.2578 405.217 72.5547C405.217 72.0332 405.325 71.5762 405.542 71.1836C405.759 70.7852 406.055 70.416 406.43 70.0762C406.811 69.7305 407.25 69.3848 407.748 69.0391ZM421.802 63.2031H426.328C427.301 63.2031 428.13 63.3496 428.815 63.6426C429.501 63.9355 430.025 64.3691 430.389 64.9434C430.758 65.5117 430.942 66.2148 430.942 67.0527C430.942 67.6914 430.825 68.2539 430.591 68.7402C430.356 69.2266 430.025 69.6367 429.598 69.9707C429.17 70.2988 428.66 70.5537 428.068 70.7354L427.4 71.0605H423.331L423.313 69.3115H426.363C426.891 69.3115 427.33 69.2178 427.682 69.0303C428.033 68.8428 428.297 68.5879 428.473 68.2656C428.654 67.9375 428.745 67.5684 428.745 67.1582C428.745 66.7129 428.657 66.3262 428.481 65.998C428.312 65.6641 428.048 65.4092 427.69 65.2334C427.333 65.0518 426.879 64.9609 426.328 64.9609H424.008V76H421.802V63.2031ZM429.105 76L426.1 70.252L428.411 70.2432L431.461 75.8857V76H429.105ZM437.121 76.1758C436.418 76.1758 435.782 76.0615 435.214 75.833C434.651 75.5986 434.171 75.2734 433.772 74.8574C433.38 74.4414 433.078 73.9521 432.867 73.3896C432.656 72.8271 432.551 72.2207 432.551 71.5703V71.2188C432.551 70.4746 432.659 69.8008 432.876 69.1973C433.093 68.5938 433.395 68.0781 433.781 67.6504C434.168 67.2168 434.625 66.8857 435.152 66.6572C435.68 66.4287 436.251 66.3145 436.866 66.3145C437.546 66.3145 438.141 66.4287 438.65 66.6572C439.16 66.8857 439.582 67.208 439.916 67.624C440.256 68.0342 440.508 68.5234 440.672 69.0918C440.842 69.6602 440.927 70.2871 440.927 70.9727V71.8779H433.579V70.3574H438.835V70.1904C438.823 69.8096 438.747 69.4521 438.606 69.1182C438.472 68.7842 438.264 68.5146 437.982 68.3096C437.701 68.1045 437.326 68.002 436.857 68.002C436.506 68.002 436.192 68.0781 435.917 68.2305C435.647 68.377 435.422 68.5908 435.24 68.8721C435.059 69.1533 434.918 69.4932 434.818 69.8916C434.725 70.2842 434.678 70.7266 434.678 71.2188V71.5703C434.678 71.9863 434.733 72.373 434.845 72.7305C434.962 73.082 435.132 73.3896 435.354 73.6533C435.577 73.917 435.847 74.125 436.163 74.2773C436.479 74.4238 436.84 74.4971 437.244 74.4971C437.754 74.4971 438.208 74.3945 438.606 74.1895C439.005 73.9844 439.351 73.6943 439.644 73.3193L440.76 74.4004C440.555 74.6992 440.288 74.9863 439.96 75.2617C439.632 75.5312 439.23 75.751 438.756 75.9209C438.287 76.0908 437.742 76.1758 437.121 76.1758ZM447.914 73.4248C447.914 73.2139 447.861 73.0234 447.756 72.8535C447.65 72.6777 447.448 72.5195 447.149 72.3789C446.856 72.2383 446.423 72.1094 445.849 71.9922C445.345 71.8809 444.882 71.749 444.46 71.5967C444.044 71.4385 443.687 71.248 443.388 71.0254C443.089 70.8027 442.857 70.5391 442.693 70.2344C442.529 69.9297 442.447 69.5781 442.447 69.1797C442.447 68.793 442.532 68.4268 442.702 68.0811C442.872 67.7354 443.115 67.4307 443.432 67.167C443.748 66.9033 444.132 66.6953 444.583 66.543C445.04 66.3906 445.55 66.3145 446.112 66.3145C446.909 66.3145 447.592 66.4492 448.16 66.7188C448.734 66.9824 449.174 67.3428 449.479 67.7998C449.783 68.251 449.936 68.7607 449.936 69.3291H447.817C447.817 69.0771 447.753 68.8428 447.624 68.626C447.501 68.4033 447.313 68.2246 447.062 68.0898C446.81 67.9492 446.493 67.8789 446.112 67.8789C445.749 67.8789 445.447 67.9375 445.207 68.0547C444.973 68.166 444.797 68.3125 444.68 68.4941C444.568 68.6758 444.513 68.875 444.513 69.0918C444.513 69.25 444.542 69.3936 444.601 69.5225C444.665 69.6455 444.771 69.7598 444.917 69.8652C445.063 69.9648 445.263 70.0586 445.515 70.1465C445.772 70.2344 446.095 70.3193 446.481 70.4014C447.208 70.5537 447.832 70.75 448.354 70.9902C448.881 71.2246 449.285 71.5293 449.566 71.9043C449.848 72.2734 449.988 72.7422 449.988 73.3105C449.988 73.7324 449.897 74.1191 449.716 74.4707C449.54 74.8164 449.282 75.1182 448.942 75.376C448.603 75.6279 448.195 75.8242 447.721 75.9648C447.252 76.1055 446.725 76.1758 446.139 76.1758C445.277 76.1758 444.548 76.0234 443.95 75.7188C443.353 75.4082 442.898 75.0127 442.588 74.5322C442.283 74.0459 442.131 73.542 442.131 73.0205H444.179C444.202 73.4131 444.311 73.7266 444.504 73.9609C444.703 74.1895 444.949 74.3564 445.242 74.4619C445.541 74.5615 445.849 74.6113 446.165 74.6113C446.546 74.6113 446.865 74.5615 447.123 74.4619C447.381 74.3564 447.577 74.2158 447.712 74.04C447.847 73.8584 447.914 73.6533 447.914 73.4248ZM456.035 76.1758C455.332 76.1758 454.696 76.0615 454.128 75.833C453.565 75.5986 453.085 75.2734 452.687 74.8574C452.294 74.4414 451.992 73.9521 451.781 73.3896C451.57 72.8271 451.465 72.2207 451.465 71.5703V71.2188C451.465 70.4746 451.573 69.8008 451.79 69.1973C452.007 68.5938 452.309 68.0781 452.695 67.6504C453.082 67.2168 453.539 66.8857 454.066 66.6572C454.594 66.4287 455.165 66.3145 455.78 66.3145C456.46 66.3145 457.055 66.4287 457.564 66.6572C458.074 66.8857 458.496 67.208 458.83 67.624C459.17 68.0342 459.422 68.5234 459.586 69.0918C459.756 69.6602 459.841 70.2871 459.841 70.9727V71.8779H452.493V70.3574H457.749V70.1904C457.737 69.8096 457.661 69.4521 457.521 69.1182C457.386 68.7842 457.178 68.5146 456.896 68.3096C456.615 68.1045 456.24 68.002 455.771 68.002C455.42 68.002 455.106 68.0781 454.831 68.2305C454.562 68.377 454.336 68.5908 454.154 68.8721C453.973 69.1533 453.832 69.4932 453.732 69.8916C453.639 70.2842 453.592 70.7266 453.592 71.2188V71.5703C453.592 71.9863 453.647 72.373 453.759 72.7305C453.876 73.082 454.046 73.3896 454.269 73.6533C454.491 73.917 454.761 74.125 455.077 74.2773C455.394 74.4238 455.754 74.4971 456.158 74.4971C456.668 74.4971 457.122 74.3945 457.521 74.1895C457.919 73.9844 458.265 73.6943 458.558 73.3193L459.674 74.4004C459.469 74.6992 459.202 74.9863 458.874 75.2617C458.546 75.5312 458.145 75.751 457.67 75.9209C457.201 76.0908 456.656 76.1758 456.035 76.1758ZM466.854 74.0928V69.5576C466.854 69.2178 466.793 68.9248 466.67 68.6787C466.547 68.4326 466.359 68.2422 466.107 68.1074C465.861 67.9727 465.551 67.9053 465.176 67.9053C464.83 67.9053 464.531 67.9639 464.279 68.0811C464.027 68.1982 463.831 68.3564 463.69 68.5557C463.55 68.7549 463.479 68.9805 463.479 69.2324H461.37C461.37 68.8574 461.461 68.4941 461.643 68.1426C461.824 67.791 462.088 67.4775 462.434 67.2021C462.779 66.9268 463.192 66.71 463.673 66.5518C464.153 66.3936 464.692 66.3145 465.29 66.3145C466.005 66.3145 466.638 66.4346 467.188 66.6748C467.745 66.915 468.182 67.2783 468.498 67.7646C468.82 68.2451 468.981 68.8486 468.981 69.5752V73.8027C468.981 74.2363 469.011 74.626 469.069 74.9717C469.134 75.3115 469.225 75.6074 469.342 75.8594V76H467.171C467.071 75.7715 466.992 75.4814 466.934 75.1299C466.881 74.7725 466.854 74.4268 466.854 74.0928ZM467.162 70.2168L467.18 71.5264H465.659C465.267 71.5264 464.921 71.5645 464.622 71.6406C464.323 71.7109 464.074 71.8164 463.875 71.957C463.676 72.0977 463.526 72.2676 463.427 72.4668C463.327 72.666 463.277 72.8916 463.277 73.1436C463.277 73.3955 463.336 73.627 463.453 73.8379C463.57 74.043 463.74 74.2041 463.963 74.3213C464.191 74.4385 464.467 74.4971 464.789 74.4971C465.223 74.4971 465.601 74.4092 465.923 74.2334C466.251 74.0518 466.509 73.832 466.696 73.5742C466.884 73.3105 466.983 73.0615 466.995 72.8271L467.681 73.7676C467.61 74.0078 467.49 74.2656 467.32 74.541C467.15 74.8164 466.928 75.0801 466.652 75.332C466.383 75.5781 466.058 75.7803 465.677 75.9385C465.302 76.0967 464.868 76.1758 464.376 76.1758C463.755 76.1758 463.201 76.0527 462.715 75.8066C462.229 75.5547 461.848 75.2178 461.572 74.7959C461.297 74.3682 461.159 73.8848 461.159 73.3457C461.159 72.8418 461.253 72.3965 461.44 72.0098C461.634 71.6172 461.915 71.2891 462.284 71.0254C462.659 70.7617 463.116 70.5625 463.655 70.4277C464.194 70.2871 464.81 70.2168 465.501 70.2168H467.162ZM473.323 68.3008V76H471.205V66.4902H473.227L473.323 68.3008ZM476.232 66.4287L476.215 68.3975C476.086 68.374 475.945 68.3564 475.793 68.3447C475.646 68.333 475.5 68.3271 475.354 68.3271C474.99 68.3271 474.671 68.3799 474.396 68.4854C474.12 68.585 473.889 68.7314 473.701 68.9248C473.52 69.1123 473.379 69.3408 473.279 69.6104C473.18 69.8799 473.121 70.1816 473.104 70.5156L472.62 70.5508C472.62 69.9531 472.679 69.3994 472.796 68.8896C472.913 68.3799 473.089 67.9316 473.323 67.5449C473.563 67.1582 473.862 66.8564 474.22 66.6396C474.583 66.4229 475.002 66.3145 475.477 66.3145C475.605 66.3145 475.743 66.3262 475.89 66.3496C476.042 66.373 476.156 66.3994 476.232 66.4287ZM481.269 74.4883C481.614 74.4883 481.925 74.4209 482.2 74.2861C482.481 74.1455 482.707 73.9521 482.877 73.7061C483.053 73.46 483.149 73.1758 483.167 72.8535H485.162C485.15 73.4688 484.969 74.0283 484.617 74.5322C484.266 75.0361 483.8 75.4375 483.22 75.7363C482.64 76.0293 481.998 76.1758 481.295 76.1758C480.568 76.1758 479.936 76.0527 479.396 75.8066C478.857 75.5547 478.409 75.209 478.052 74.7695C477.694 74.3301 477.425 73.8232 477.243 73.249C477.067 72.6748 476.979 72.0596 476.979 71.4033V71.0957C476.979 70.4395 477.067 69.8242 477.243 69.25C477.425 68.6699 477.694 68.1602 478.052 67.7207C478.409 67.2812 478.857 66.9385 479.396 66.6924C479.936 66.4404 480.565 66.3145 481.286 66.3145C482.048 66.3145 482.716 66.4668 483.29 66.7715C483.864 67.0703 484.315 67.4893 484.644 68.0283C484.978 68.5615 485.15 69.1826 485.162 69.8916H483.167C483.149 69.54 483.062 69.2236 482.903 68.9424C482.751 68.6553 482.534 68.4268 482.253 68.2568C481.978 68.0869 481.646 68.002 481.26 68.002C480.832 68.002 480.478 68.0898 480.196 68.2656C479.915 68.4355 479.695 68.6699 479.537 68.9688C479.379 69.2617 479.265 69.5928 479.194 69.9619C479.13 70.3252 479.098 70.7031 479.098 71.0957V71.4033C479.098 71.7959 479.13 72.1768 479.194 72.5459C479.259 72.915 479.37 73.2461 479.528 73.5391C479.692 73.8262 479.915 74.0576 480.196 74.2334C480.478 74.4033 480.835 74.4883 481.269 74.4883ZM488.88 62.5V76H486.771V62.5H488.88ZM488.511 70.8936L487.825 70.8848C487.831 70.2285 487.922 69.6221 488.098 69.0654C488.279 68.5088 488.531 68.0254 488.854 67.6152C489.182 67.1992 489.574 66.8799 490.031 66.6572C490.488 66.4287 490.995 66.3145 491.552 66.3145C492.021 66.3145 492.442 66.3789 492.817 66.5078C493.198 66.6367 493.526 66.8447 493.802 67.1318C494.077 67.4131 494.285 67.7822 494.426 68.2393C494.572 68.6904 494.646 69.2412 494.646 69.8916V76H492.519V69.874C492.519 69.417 492.451 69.0537 492.316 68.7842C492.188 68.5146 491.997 68.3213 491.745 68.2041C491.493 68.0811 491.186 68.0195 490.822 68.0195C490.441 68.0195 490.104 68.0957 489.812 68.248C489.524 68.4004 489.284 68.6084 489.091 68.8721C488.897 69.1357 488.751 69.4404 488.651 69.7861C488.558 70.1318 488.511 70.501 488.511 70.8936Z" fill="#5F6368"/>
</svg>
